<mxfile host="app.diagrams.net" modified="2023-09-05T13:58:53.078Z" agent="Mozilla/5.0 (Windows NT 10.0; Win64; x64) AppleWebKit/537.36 (KHTML, like Gecko) Chrome/116.0.0.0 Safari/537.36" etag="pxwfoUekMlq94l-JB5aU" version="21.6.9" type="device">
  <diagram name="Page-1" id="QtRsktE3P_jJXRIkDMJk">
    <mxGraphModel dx="794" dy="456" grid="1" gridSize="10" guides="1" tooltips="1" connect="1" arrows="1" fold="1" page="1" pageScale="1" pageWidth="827" pageHeight="1169" math="0" shadow="0">
      <root>
        <mxCell id="0" />
        <mxCell id="1" parent="0" />
        <mxCell id="vGHQO9qyy-ER5NgrS1xd-6" style="edgeStyle=orthogonalEdgeStyle;rounded=0;orthogonalLoop=1;jettySize=auto;html=1;entryX=0;entryY=0.5;entryDx=0;entryDy=0;" edge="1" parent="1" source="vGHQO9qyy-ER5NgrS1xd-1" target="vGHQO9qyy-ER5NgrS1xd-2">
          <mxGeometry relative="1" as="geometry" />
        </mxCell>
        <mxCell id="vGHQO9qyy-ER5NgrS1xd-1" value="" style="whiteSpace=wrap;html=1;aspect=fixed;" vertex="1" parent="1">
          <mxGeometry x="70" y="150" width="130" height="130" as="geometry" />
        </mxCell>
        <mxCell id="vGHQO9qyy-ER5NgrS1xd-2" value="" style="whiteSpace=wrap;html=1;aspect=fixed;" vertex="1" parent="1">
          <mxGeometry x="369" y="150" width="130" height="130" as="geometry" />
        </mxCell>
        <mxCell id="vGHQO9qyy-ER5NgrS1xd-3" value="LiveBook" style="whiteSpace=wrap;html=1;aspect=fixed;" vertex="1" parent="1">
          <mxGeometry x="105" y="160" width="60" height="60" as="geometry" />
        </mxCell>
        <mxCell id="vGHQO9qyy-ER5NgrS1xd-4" value="Bank App" style="whiteSpace=wrap;html=1;aspect=fixed;" vertex="1" parent="1">
          <mxGeometry x="404" y="160" width="60" height="60" as="geometry" />
        </mxCell>
        <mxCell id="vGHQO9qyy-ER5NgrS1xd-8" value="Local Host&amp;nbsp; Machine" style="text;strokeColor=none;align=center;fillColor=none;html=1;verticalAlign=middle;whiteSpace=wrap;rounded=0;" vertex="1" parent="1">
          <mxGeometry x="400" y="230" width="60" height="30" as="geometry" />
        </mxCell>
        <mxCell id="vGHQO9qyy-ER5NgrS1xd-9" value="Livebook Server Running on Localhost" style="text;strokeColor=none;align=center;fillColor=none;html=1;verticalAlign=middle;whiteSpace=wrap;rounded=0;" vertex="1" parent="1">
          <mxGeometry x="90" y="240" width="90" height="30" as="geometry" />
        </mxCell>
        <mxCell id="vGHQO9qyy-ER5NgrS1xd-10" value="Connect LIvebook to Local App Using Nodes" style="text;strokeColor=none;align=center;fillColor=none;html=1;verticalAlign=middle;whiteSpace=wrap;rounded=0;" vertex="1" parent="1">
          <mxGeometry x="250" y="195" width="80" height="40" as="geometry" />
        </mxCell>
      </root>
    </mxGraphModel>
  </diagram>
</mxfile>
